# xmcd
#
# Track frame offsets: 
#        150
#        10095
#        24987
#        44197
#        54410
#        66065
#        78492
#        90140
#        101397
#        122562
#        133277
#        147637
#
# Disc length: 2096 seconds
#
# Revision: 0
# Processed by: cddbd v1.5.2PL0 Copyright (c) Steve Scherf et al.
# Submitted via: ExactAudioCopy v0.99pb4
#
DISCID=9c082e0c
DTITLE=Bluegrass Impressions - Daddy Was a Banjo Man
DYEAR=2000
DGENRE=Bluegrass
TTITLE0=Will I Be That Lucky Man
TTITLE1=Cherokee
TTITLE2=This Lonesome SOng
TTITLE3=Let Him Guide You
TTITLE4=Sweet Sweet Baby
TTITLE5=Riders of the Night
TTITLE6=Daddy Was a Banjo Man
TTITLE7=Bluegrass Special
TTITLE8=Hous of Gold
TTITLE9=Tears of Misery
TTITLE10=Country Boy Rock and Roll
TTITLE11=When I Cast on the Other Side
EXTD=
EXTT0=
EXTT1=
EXTT2=
EXTT3=
EXTT4=
EXTT5=
EXTT6=
EXTT7=
EXTT8=
EXTT9=
EXTT10=
EXTT11=
PLAYORDER=
